<?xml version="1.0" encoding="UTF-8" standalone="no"?><!-- Generator: Gravit.io --><svg xmlns="http://www.w3.org/2000/svg" xmlns:xlink="http://www.w3.org/1999/xlink" style="isolation:isolate" viewBox="0 0 3200 1080" width="3200pt" height="1080pt"><defs><clipPath id="_clipPath_AbitxQCbZwjyT510JwR8rhl7fCttWw5p"><rect width="3200" height="1080"/></clipPath></defs><g clip-path="url(#_clipPath_AbitxQCbZwjyT510JwR8rhl7fCttWw5p)"><g><g><g><linearGradient id="_lgradient_2" x1="0.46824467000610737" y1="0.09883907587719243" x2="0.5223555306817022" y2="0.9633376754927901" gradientTransform="matrix(-475.305,-128.791,-184.649,681.447,1102.714,222.846)" gradientUnits="userSpaceOnUse"><stop offset="0%" stop-opacity="1" style="stop-color:rgb(32,32,32)"/><stop offset="100%" stop-opacity="1" style="stop-color:rgb(87,87,87)"/></linearGradient><path d=" M 788.478 266.213 L 606.247 462.264 C 545.009 528.146 540.367 639.088 595.888 709.856 L 602.041 717.698 C 657.562 788.466 762.809 815.057 836.923 777.044 L 836.923 777.044 C 911.037 739.03 959.649 636.062 945.411 547.249 L 906.085 301.945 C 893.841 225.565 841.142 209.554 788.478 266.213 Z " fill="url(#_lgradient_2)"/><path d=" M 906.327 569.776 C 924.611 654.989 870.273 739.016 785.06 757.3 C 699.847 775.584 615.82 721.246 597.536 636.033 C 579.251 550.82 633.589 466.793 718.803 448.509 C 804.016 430.224 888.043 484.562 906.327 569.776 Z " fill="rgb(102,102,102)"/><path d="M 648.391 601.929 L 648.391 601.929 C 648.559 584.024 663.234 569.623 681.141 569.791 L 824.457 571.136 C 842.364 571.304 856.767 585.977 856.599 603.881 L 856.599 603.881 C 856.431 621.786 841.756 636.187 823.849 636.019 L 680.533 634.674 C 662.626 634.506 648.223 619.833 648.391 601.929 Z" style="stroke:none;fill:#F2F2F2;stroke-miterlimit:10;"/></g><g><linearGradient id="_lgradient_3" x1="0.5" y1="0.9999999999999999" x2="0.48236496198449474" y2="0.06471926183254706" gradientTransform="matrix(691.175,-245.942,352.609,990.942,-217.718,142.364)" gradientUnits="userSpaceOnUse"><stop offset="0%" stop-opacity="1" style="stop-color:rgb(134,0,0)"/><stop offset="100%" stop-opacity="1" style="stop-color:rgb(247,0,0)"/></linearGradient><path d=" M 254.01 170.651 L 547.222 440.899 C 645.755 531.715 665.404 695.967 591.073 807.462 L 582.836 819.819 C 508.505 931.314 355.237 982.912 240.783 934.97 L 240.783 934.97 C 126.329 887.028 42.287 739.676 53.224 606.122 L 83.432 237.246 C 92.838 122.389 169.272 92.549 254.01 170.651 Z " fill="url(#_lgradient_3)"/><path d=" M 194.597 844.035 C 95.739 759.863 83.817 611.266 167.989 512.408 C 252.162 413.551 400.759 401.629 499.616 485.801 C 598.474 569.973 610.396 718.57 526.224 817.428 C 442.051 916.285 293.454 928.208 194.597 844.035 Z " fill="rgb(253,89,89)"/><path d=" M 394.363 615.525 L 393.072 557.122 C 392.482 530.451 370.35 509.276 343.678 509.866 L 343.678 509.866 C 317.007 510.456 295.832 532.588 296.422 559.259 L 297.713 617.662 L 239.311 618.953 C 212.639 619.543 191.465 641.675 192.054 668.346 L 192.054 668.346 C 192.644 695.018 214.776 716.192 241.447 715.603 L 299.85 714.311 L 301.142 772.714 C 301.731 799.385 323.864 820.56 350.535 819.97 L 350.535 819.97 C 377.206 819.381 398.381 797.248 397.791 770.577 L 396.5 712.174 L 454.903 710.883 C 481.574 710.293 502.749 688.161 502.159 661.49 L 502.159 661.49 C 501.569 634.819 479.437 613.644 452.766 614.234 L 394.363 615.525 Z " fill="rgb(249,249,249)"/></g></g><g><g clip-path="url(#_clipPath_ZgHNEDExq6S6V7gQFJI7IIYBXdFdl9cT)"><text transform="matrix(16.223,0,0,16.223,1040.615,401.956)" style="font-family:'Krona One';font-weight:400;font-size:10px;font-style:normal;fill:#959595;stroke:none;">GRUPO</text><text transform="matrix(16.223,0,0,16.223,1810.163,401.956)" style="font-family:'Krona One';font-weight:400;font-size:10px;font-style:normal;fill:#444444;stroke:none;">SH</text></g><defs><clipPath id="_clipPath_ZgHNEDExq6S6V7gQFJI7IIYBXdFdl9cT"><rect x="0" y="0" width="71.505" height="12.865" transform="matrix(16.223,0,0,16.223,1023.919,238.196)"/></clipPath></defs><g clip-path="url(#_clipPath_OxW7rOG7IG0Rs95D9wTfvhp92N8SF4mQ)"><text transform="matrix(16.223,0,0,16.223,1023.919,751.288)" style="font-family:'Krona One';font-weight:400;font-size:18px;font-style:normal;fill:#e90000;stroke:none;">BIOMAG</text><text transform="matrix(16.223,0,0,16.223,2555.537,751.288)" style="font-family:'Krona One';font-weight:400;font-size:18px;font-style:normal;fill:#959595;stroke:none;">S</text><text transform="matrix(16.223,0,0,16.223,2847.545,751.288)" style="font-family:'Krona One';font-weight:400;font-size:18px;font-style:normal;fill:#444444;stroke:none;">H</text></g><defs><clipPath id="_clipPath_OxW7rOG7IG0Rs95D9wTfvhp92N8SF4mQ"><rect x="0" y="0" width="130.916" height="24.343" transform="matrix(16.223,0,0,16.223,1023.919,446.898)"/></clipPath></defs></g></g></g></svg>